<svg width="72" height="72" viewBox="0 0 72 72" fill="none" xmlns="http://www.w3.org/2000/svg">
<circle cx="36" cy="36" r="36" fill="#52CACC" fill-opacity="0.08"/>
<circle opacity="0.24" cx="36" cy="8" r="2" fill="#FF8B58"/>
<circle opacity="0.24" cx="62" cy="29" r="2" fill="#6F96FF"/>
<circle opacity="0.24" cx="20" cy="58" r="2" fill="#713BDB"/>
<rect x="18" y="18" width="36" height="36" rx="8" fill="url(#paint0_linear_315_275)"/>
<path d="M36.2791 25.0097C35.5151 24.9552 34.7183 25.1298 34.0088 25.5446C33.5531 25.8055 33.1533 26.1538 32.8325 26.5696C32.5117 26.9853 32.276 27.4603 32.1392 27.9673C32.0023 28.4744 31.9668 29.0034 32.0348 29.5241C32.1028 30.0449 32.2729 30.5471 32.5354 31.0019L40.5468 44.8637C41.6492 46.7847 44.0941 47.4178 46.0151 46.3263C47.9252 45.2348 48.5582 42.779 47.4668 40.8689L39.4771 27.0071C39.1472 26.4388 38.6833 25.9598 38.1259 25.6117C37.5686 25.2636 36.9346 25.0569 36.2791 25.0097V25.0097ZM30.3524 30.7836L24.5457 40.8689C24.1919 41.4754 24.0037 42.1642 24 42.8663C24 43.3923 24.1036 43.9132 24.3049 44.3992C24.5062 44.8852 24.8013 45.3268 25.1732 45.6988C25.5452 46.0707 25.9868 46.3658 26.4728 46.5671C26.9588 46.7684 27.4797 46.872 28.0057 46.872C28.7079 46.8699 29.3971 46.6832 30.0044 46.3307C30.6116 45.9782 31.1156 45.4723 31.4657 44.8637V44.8746L34.9148 38.8933C33.4413 36.3829 31.935 33.8834 30.5816 31.2966C30.4943 31.1329 30.4179 30.9583 30.3633 30.7836H30.3524ZM30.3524 30.7836L40.8087 28.8626L30.3524 30.7836Z" fill="white" fill-opacity="0.8"/>
<path d="M58 44C58 51.732 51.732 58 44 58C36.268 58 30 51.732 30 44C30 36.268 36.268 30 44 30C51.732 30 58 36.268 58 44Z" fill="url(#paint1_linear_315_275)"/>
<path d="M39 48V51C39 51.5523 39.4477 52 40 52H43C43.5523 52 44 51.5523 44 51V48C44 47.4477 43.5523 47 43 47H40C39.4477 47 39 47.4477 39 48Z" fill="white"/>
<path d="M48.5 48H45.5C45.2239 48 45 48.2239 45 48.5C45 48.7761 45.2239 49 45.5 49H48.5C48.7761 49 49 48.7761 49 48.5C49 48.2239 48.7761 48 48.5 48Z" fill="white"/>
<path d="M48.5 50H45.5C45.2239 50 45 50.2239 45 50.5C45 50.7761 45.2239 51 45.5 51H48.5C48.7761 51 49 50.7761 49 50.5C49 50.2239 48.7761 50 48.5 50Z" fill="white"/>
<path d="M41.2384 45H39.1652V38.3235H41.2384V45ZM40.2007 37.4128C39.5377 37.4128 39 36.8637 39 36.2007C39 35.8823 39.1265 35.5769 39.3517 35.3517C39.5768 35.1265 39.8822 35 40.2007 35C40.5191 35 40.8245 35.1265 41.0497 35.3517C41.2748 35.5769 41.4013 35.8823 41.4013 36.2007C41.4013 36.8637 40.8634 37.4128 40.2007 37.4128ZM48.9978 45H46.929V41.7499C46.929 40.9754 46.9134 39.982 45.8511 39.982C44.7732 39.982 44.608 40.8236 44.608 41.6941V45H42.5371V38.3235H44.5254V39.2342H44.5545C44.8312 38.7097 45.5074 38.1561 46.5161 38.1561C48.6143 38.1561 49 39.5378 49 41.3325V45H48.9978Z" fill="white" fill-opacity="0.6"/>
<defs>
<linearGradient id="paint0_linear_315_275" x1="36" y1="18" x2="36" y2="54" gradientUnits="userSpaceOnUse">
<stop stop-color="#35EAA6"/>
<stop offset="1" stop-color="#52CACC"/>
</linearGradient>
<linearGradient id="paint1_linear_315_275" x1="44" y1="30" x2="44" y2="58" gradientUnits="userSpaceOnUse">
<stop stop-color="#FA50D5"/>
<stop offset="1" stop-color="#FA5080"/>
</linearGradient>
</defs>
</svg>
