<svg width="72" height="72" viewBox="0 0 72 72" fill="none" xmlns="http://www.w3.org/2000/svg">
<circle cx="36" cy="36" r="36" fill="#52CACC" fill-opacity="0.08"/>
<circle opacity="0.24" cx="36" cy="8.00001" r="2" fill="#FF8B58"/>
<circle opacity="0.24" cx="62" cy="29" r="2" fill="#6F96FF"/>
<circle opacity="0.24" cx="20" cy="58" r="2" fill="#713BDB"/>
<rect x="18" y="18" width="36" height="36" rx="8" fill="url(#paint0_linear_312_108)"/>
<path d="M36.2791 25.0097C35.5151 24.9552 34.7183 25.1298 34.0088 25.5446C33.5531 25.8055 33.1533 26.1538 32.8325 26.5696C32.5117 26.9853 32.276 27.4603 32.1392 27.9673C32.0023 28.4744 31.9668 29.0034 32.0348 29.5241C32.1028 30.0449 32.2729 30.5471 32.5354 31.0019L40.5468 44.8637C41.6492 46.7847 44.0941 47.4178 46.0151 46.3263C47.9252 45.2348 48.5582 42.779 47.4668 40.8689L39.4771 27.0071C39.1472 26.4388 38.6833 25.9598 38.1259 25.6117C37.5686 25.2636 36.9346 25.0569 36.2791 25.0097V25.0097ZM30.3524 30.7836L24.5457 40.8689C24.1919 41.4754 24.0037 42.1642 24 42.8663C24 43.3923 24.1036 43.9132 24.3049 44.3992C24.5062 44.8852 24.8013 45.3268 25.1732 45.6988C25.5452 46.0707 25.9868 46.3658 26.4728 46.5671C26.9588 46.7684 27.4797 46.872 28.0057 46.872C28.7079 46.8699 29.3971 46.6832 30.0044 46.3307C30.6116 45.9782 31.1156 45.4723 31.4657 44.8637V44.8746L34.9148 38.8933C33.4413 36.3829 31.935 33.8834 30.5816 31.2966C30.4943 31.1329 30.4179 30.9583 30.3633 30.7836H30.3524ZM30.3524 30.7836L40.8087 28.8626L30.3524 30.7836Z" fill="white" fill-opacity="0.8"/>
<path d="M58 44C58 51.732 51.732 58 44 58C36.268 58 30 51.732 30 44C30 36.268 36.268 30 44 30C51.732 30 58 36.268 58 44Z" fill="url(#paint1_linear_312_108)"/>
<path d="M38.8958 50.5625H49.1042C49.9096 50.5625 50.5625 49.9096 50.5625 49.1042V38.8958C50.5625 38.0904 49.9096 37.4375 49.1042 37.4375H38.8958C38.0904 37.4375 37.4375 38.0904 37.4375 38.8958V49.1042C37.4375 49.9096 38.0904 50.5625 38.8958 50.5625Z" stroke="white" stroke-width="1.5" stroke-linecap="round" stroke-linejoin="round"/>
<path d="M45.6337 41.052V42.1624H44.9732C44.8856 42.1512 44.7967 42.159 44.7124 42.1852C44.6282 42.2114 44.5505 42.2554 44.4848 42.3143L44.4853 42.3137C44.3908 42.4463 44.3462 42.6081 44.3594 42.7704V42.768V43.563H45.5926L45.4293 44.8081H44.3611V48H43.0731V44.8078H42V43.563H43.0731V42.6459C43.0592 42.4244 43.0908 42.2023 43.1662 41.9936C43.2415 41.7848 43.3589 41.5937 43.5111 41.4322L43.5102 41.4331C43.6655 41.2859 43.8492 41.1718 44.0499 41.0977C44.2507 41.0236 44.4644 40.9911 44.6781 41.0021H44.6743C45.0062 40.9966 45.3381 41.0146 45.6675 41.056L45.6334 41.0525L45.6337 41.052Z" fill="white"/>
<defs>
<linearGradient id="paint0_linear_312_108" x1="36" y1="18" x2="36" y2="54" gradientUnits="userSpaceOnUse">
<stop stop-color="#35EAA6"/>
<stop offset="1" stop-color="#52CACC"/>
</linearGradient>
<linearGradient id="paint1_linear_312_108" x1="33.8889" y1="32.3333" x2="54.5" y2="58" gradientUnits="userSpaceOnUse">
<stop stop-color="#B792FF"/>
<stop offset="1" stop-color="#713BDB"/>
</linearGradient>
</defs>
</svg>
