<svg width="72" height="72" viewBox="0 0 72 72" fill="none" xmlns="http://www.w3.org/2000/svg">
<circle cx="36" cy="36" r="36" fill="#52CACC" fill-opacity="0.08"/>
<circle opacity="0.24" cx="36" cy="8" r="2" fill="#FF8B58"/>
<circle opacity="0.24" cx="62" cy="29" r="2" fill="#6F96FF"/>
<circle opacity="0.24" cx="20" cy="58" r="2" fill="#713BDB"/>
<rect x="18" y="18" width="36" height="36" rx="8" fill="url(#paint0_linear_283_106)"/>
<path d="M36.2791 25.0097C35.5151 24.9552 34.7183 25.1298 34.0088 25.5446C33.5531 25.8055 33.1533 26.1538 32.8325 26.5696C32.5117 26.9853 32.276 27.4603 32.1392 27.9673C32.0023 28.4744 31.9668 29.0034 32.0348 29.5241C32.1028 30.0449 32.2729 30.5471 32.5354 31.0019L40.5468 44.8637C41.6492 46.7847 44.0941 47.4178 46.0151 46.3263C47.9252 45.2348 48.5582 42.779 47.4668 40.8689L39.4771 27.0071C39.1472 26.4388 38.6833 25.9598 38.1259 25.6117C37.5686 25.2636 36.9346 25.0569 36.2791 25.0097V25.0097ZM30.3524 30.7836L24.5457 40.8689C24.1919 41.4754 24.0037 42.1642 24 42.8663C24 43.3923 24.1036 43.9132 24.3049 44.3992C24.5062 44.8852 24.8013 45.3268 25.1732 45.6988C25.5452 46.0707 25.9868 46.3658 26.4728 46.5671C26.9588 46.7684 27.4797 46.872 28.0057 46.872C28.7079 46.8699 29.3971 46.6832 30.0044 46.3307C30.6116 45.9782 31.1156 45.4723 31.4657 44.8637V44.8746L34.9148 38.8933C33.4413 36.3829 31.935 33.8834 30.5816 31.2966C30.4943 31.1329 30.4179 30.9583 30.3633 30.7836H30.3524ZM30.3524 30.7836L40.8087 28.8626L30.3524 30.7836Z" fill="white" fill-opacity="0.8"/>
<path d="M58 44C58 51.732 51.732 58 44 58C36.268 58 30 51.732 30 44C30 36.268 36.268 30 44 30C51.732 30 58 36.268 58 44Z" fill="url(#paint1_linear_283_106)"/>
<path d="M37.7778 50H50.2222C51.2041 50 52 49.403 52 48.6667V39.3333C52 38.597 51.2041 38 50.2222 38H37.7778C36.7959 38 36 38.597 36 39.3333V48.6667C36 49.403 36.7959 50 37.7778 50Z" stroke="white" stroke-width="1.5" stroke-linecap="round" stroke-linejoin="round"/>
<path d="M40.343 46.9276L40.7829 45.576H42.9219L43.3618 46.9276H44.7048L42.6614 41H41.0463L39 46.9276H40.343ZM41.1013 44.5977L41.8307 42.3546H41.877L42.6064 44.5977H41.1013Z" fill="white"/>
<path d="M46.8263 47C47.5441 47 47.9175 46.5861 48.0883 46.2156H48.1404V46.9276H49.356V41H48.1259V43.2287H48.0883C47.9233 42.8669 47.5673 42.424 46.8234 42.424C45.848 42.424 45.0232 43.1823 45.0232 44.7106C45.0232 46.1983 45.8133 47 46.8263 47ZM47.2171 46.0188C46.6122 46.0188 46.2822 45.4805 46.2822 44.7048C46.2822 43.9349 46.6064 43.4052 47.2171 43.4052C47.8162 43.4052 48.152 43.9117 48.152 44.7048C48.152 45.4978 47.8104 46.0188 47.2171 46.0188Z" fill="white"/>
<defs>
<linearGradient id="paint0_linear_283_106" x1="36" y1="18" x2="36" y2="54" gradientUnits="userSpaceOnUse">
<stop stop-color="#35EAA6"/>
<stop offset="1" stop-color="#52CACC"/>
</linearGradient>
<linearGradient id="paint1_linear_283_106" x1="54.9349" y1="55.7604" x2="36.8172" y2="26.0082" gradientUnits="userSpaceOnUse">
<stop stop-color="#FF8B58"/>
<stop offset="1" stop-color="#FFD058"/>
</linearGradient>
</defs>
</svg>
