<svg width="72" height="72" viewBox="0 0 72 72" fill="none" xmlns="http://www.w3.org/2000/svg">
<circle cx="36" cy="36" r="36" fill="#52CACC" fill-opacity="0.08"/>
<circle opacity="0.24" cx="36" cy="8" r="2" fill="#FF8B58"/>
<circle opacity="0.24" cx="62" cy="29" r="2" fill="#6F96FF"/>
<circle opacity="0.24" cx="20" cy="58" r="2" fill="#713BDB"/>
<rect x="18" y="18" width="36" height="36" rx="8" fill="url(#paint0_linear_312_153)"/>
<path d="M36.2791 25.0097C35.5151 24.9552 34.7183 25.1298 34.0088 25.5446C33.5531 25.8055 33.1533 26.1538 32.8325 26.5696C32.5117 26.9853 32.276 27.4603 32.1392 27.9673C32.0023 28.4744 31.9668 29.0034 32.0348 29.5241C32.1028 30.0449 32.2729 30.5471 32.5354 31.0019L40.5468 44.8637C41.6492 46.7847 44.0941 47.4178 46.0151 46.3263C47.9252 45.2348 48.5582 42.779 47.4668 40.8689L39.4771 27.0071C39.1472 26.4388 38.6833 25.9598 38.1259 25.6117C37.5686 25.2636 36.9346 25.0569 36.2791 25.0097V25.0097ZM30.3524 30.7836L24.5457 40.8689C24.1919 41.4754 24.0037 42.1642 24 42.8663C24 43.3923 24.1036 43.9132 24.3049 44.3992C24.5062 44.8852 24.8013 45.3268 25.1732 45.6988C25.5452 46.0707 25.9868 46.3658 26.4728 46.5671C26.9588 46.7684 27.4797 46.872 28.0057 46.872C28.7079 46.8699 29.3971 46.6832 30.0044 46.3307C30.6116 45.9782 31.1156 45.4723 31.4657 44.8637V44.8746L34.9148 38.8933C33.4413 36.3829 31.935 33.8834 30.5816 31.2966C30.4943 31.1329 30.4179 30.9583 30.3633 30.7836H30.3524ZM30.3524 30.7836L40.8087 28.8626L30.3524 30.7836Z" fill="white" fill-opacity="0.8"/>
<path d="M58 44C58 51.732 51.732 58 44 58C36.268 58 30 51.732 30 44C30 36.268 36.268 30 44 30C51.732 30 58 36.268 58 44Z" fill="url(#paint1_linear_312_153)"/>
<path d="M41.801 48H40.1329V42.6588H41.801V48ZM40.966 41.9302C40.4326 41.9302 40 41.4909 40 40.9606C40 40.7058 40.1018 40.4615 40.2829 40.2813C40.4641 40.1012 40.7098 40 40.966 40C41.2223 40 41.468 40.1012 41.6491 40.2813C41.8303 40.4615 41.9321 40.7058 41.9321 40.9606C41.9321 41.4909 41.4993 41.9302 40.966 41.9302ZM48.0441 48H46.3796V45.3999C46.3796 44.7803 46.367 43.9856 45.5123 43.9856C44.6451 43.9856 44.5122 44.6589 44.5122 45.3553V48H42.8459V42.6588H44.4457V43.3874H44.4691C44.6918 42.9677 45.2358 42.5249 46.0474 42.5249C47.7356 42.5249 48.0459 43.6303 48.0459 45.066V48H48.0441Z" fill="white"/>
<path d="M37.7778 50.5H50.2222C51.2041 50.5 52 49.903 52 49.1667V39.8333C52 39.097 51.2041 38.5 50.2222 38.5H37.7778C36.7959 38.5 36 39.097 36 39.8333V49.1667C36 49.903 36.7959 50.5 37.7778 50.5Z" stroke="white" stroke-width="1.5" stroke-linecap="round" stroke-linejoin="round"/>
<defs>
<linearGradient id="paint0_linear_312_153" x1="36" y1="18" x2="36" y2="54" gradientUnits="userSpaceOnUse">
<stop stop-color="#35EAA6"/>
<stop offset="1" stop-color="#52CACC"/>
</linearGradient>
<linearGradient id="paint1_linear_312_153" x1="44" y1="30" x2="44" y2="58" gradientUnits="userSpaceOnUse">
<stop stop-color="#FA50D5"/>
<stop offset="1" stop-color="#FA5080"/>
</linearGradient>
</defs>
</svg>
