<svg width="72" height="72" viewBox="0 0 72 72" fill="none" xmlns="http://www.w3.org/2000/svg">
<circle cx="36" cy="36" r="36" fill="#713BDB" fill-opacity="0.08"/>
<circle opacity="0.24" cx="36" cy="8" r="2" fill="#FF8B58"/>
<circle opacity="0.24" cx="62" cy="29" r="2" fill="#6F96FF"/>
<circle opacity="0.24" cx="20" cy="58" r="2" fill="#713BDB"/>
<g filter="url(#filter0_d_268_93)">
<path d="M18 26C18 21.5817 21.5817 18 26 18H46C50.4183 18 54 21.5817 54 26V46C54 50.4183 50.4183 54 46 54H26C21.5817 54 18 50.4183 18 46V26Z" fill="url(#paint0_linear_268_93)"/>
</g>
<path fill-rule="evenodd" clip-rule="evenodd" d="M24.8853 35.7946C24.8853 35.2423 25.333 34.7946 25.8853 34.7946H45.8429C46.3952 34.7946 46.8429 35.2423 46.8429 35.7946C46.8429 36.3469 46.3952 36.7946 45.8429 36.7946H25.8853C25.333 36.7946 24.8853 36.3469 24.8853 35.7946Z" fill="#EDE5FD"/>
<path fill-rule="evenodd" clip-rule="evenodd" d="M25.0415 41.7947C25.0415 41.2424 25.4892 40.7947 26.0415 40.7947H45.9992C46.5515 40.7947 46.9992 41.2424 46.9992 41.7947C46.9992 42.347 46.5515 42.7947 45.9992 42.7947H26.0415C25.4892 42.7947 25.0415 42.347 25.0415 41.7947Z" fill="#EDE5FD"/>
<path fill-rule="evenodd" clip-rule="evenodd" d="M24.8855 29.7945C24.8855 29.2423 25.3332 28.7945 25.8855 28.7945H30.8749C31.4272 28.7945 31.8749 29.2423 31.8749 29.7945C31.8749 30.3468 31.4272 30.7945 30.8749 30.7945H25.8855C25.3332 30.7945 24.8855 30.3468 24.8855 29.7945Z" fill="#EDE5FD"/>
<path d="M58 44C58 51.732 51.732 58 44 58C36.268 58 30 51.732 30 44C30 36.268 36.268 30 44 30C51.732 30 58 36.268 58 44Z" fill="url(#paint1_linear_268_93)"/>
<g clip-path="url(#clip0_268_93)">
<path d="M41.3698 51.2188C41.3698 51.4315 41.4543 51.6355 41.6048 51.7859C41.7552 51.9363 41.9592 52.0208 42.1719 52.0208H45.3803C45.593 52.0208 45.797 51.9363 45.9474 51.7859C46.0978 51.6355 46.1823 51.4315 46.1823 51.2188V50.4167H41.3698V51.2188ZM43.7761 35.9792C42.5818 35.9803 41.4189 36.3622 40.4565 37.0695C39.4941 37.7767 38.7823 38.7724 38.4246 39.9119C38.0668 41.0514 38.0817 42.2752 38.4671 43.4056C38.8526 44.5361 39.5884 45.5141 40.5678 46.1977V48.0104C40.5678 48.2231 40.6523 48.4272 40.8027 48.5776C40.9531 48.728 41.1571 48.8125 41.3698 48.8125H46.1823C46.3951 48.8125 46.5991 48.728 46.7495 48.5776C46.8999 48.4272 46.9844 48.2231 46.9844 48.0104V46.1977C47.3394 45.9432 47.6665 45.652 47.9603 45.3288C48.8927 44.3097 49.4039 42.9749 49.3907 41.5938C49.3891 40.1052 48.797 38.678 47.7444 37.6254C46.6918 36.5728 45.2647 35.9808 43.7761 35.9792V35.9792ZM46.062 44.8823L45.3803 45.3635V47.2083H42.1719V45.3635L41.4901 44.8823C40.7881 44.3953 40.26 43.6968 39.9827 42.8887C39.7055 42.0805 39.6935 41.2049 39.9487 40.3895C40.2038 39.5741 40.7127 38.8615 41.4012 38.3556C42.0896 37.8496 42.9217 37.5767 43.7761 37.5767C44.6305 37.5767 45.4625 37.8496 46.151 38.3556C46.8395 38.8615 47.3484 39.5741 47.6035 40.3895C47.8587 41.2049 47.8467 42.0805 47.5694 42.8887C47.2922 43.6968 46.764 44.3953 46.062 44.8823V44.8823Z" fill="white"/>
</g>
<defs>
<filter id="filter0_d_268_93" x="10" y="10" width="52" height="52" filterUnits="userSpaceOnUse" color-interpolation-filters="sRGB">
<feFlood flood-opacity="0" result="BackgroundImageFix"/>
<feColorMatrix in="SourceAlpha" type="matrix" values="0 0 0 0 0 0 0 0 0 0 0 0 0 0 0 0 0 0 127 0" result="hardAlpha"/>
<feOffset/>
<feGaussianBlur stdDeviation="4"/>
<feColorMatrix type="matrix" values="0 0 0 0 0.443137 0 0 0 0 0.231373 0 0 0 0 0.858824 0 0 0 0.8 0"/>
<feBlend mode="normal" in2="BackgroundImageFix" result="effect1_dropShadow_268_93"/>
<feBlend mode="normal" in="SourceGraphic" in2="effect1_dropShadow_268_93" result="shape"/>
</filter>
<linearGradient id="paint0_linear_268_93" x1="23" y1="21" x2="49.5" y2="54" gradientUnits="userSpaceOnUse">
<stop stop-color="#B792FF"/>
<stop offset="1" stop-color="#713BDB"/>
</linearGradient>
<linearGradient id="paint1_linear_268_93" x1="44" y1="30" x2="44" y2="58" gradientUnits="userSpaceOnUse">
<stop stop-color="#35EAA6"/>
<stop offset="1" stop-color="#52CACC"/>
</linearGradient>
<clipPath id="clip0_268_93">
<rect width="17.5" height="17.5" fill="white" transform="translate(35.25 35.25)"/>
</clipPath>
</defs>
</svg>
