<svg width="72" height="72" viewBox="0 0 72 72" fill="none" xmlns="http://www.w3.org/2000/svg">
<circle cx="36" cy="36" r="36" fill="#713BDB" fill-opacity="0.08"/>
<circle opacity="0.24" cx="29.5574" cy="10.0041" r="2" transform="rotate(-15 29.5574 10.0041)" fill="#FF8B58"/>
<circle opacity="0.24" cx="60.1067" cy="23.5592" r="2" transform="rotate(-15 60.1067 23.5592)" fill="#6F96FF"/>
<circle opacity="0.24" cx="27.0435" cy="62.4415" r="2" transform="rotate(-15 27.0435 62.4415)" fill="#713BDB"/>
<g filter="url(#filter0_d_268_196)">
<rect x="16.8584" y="16.8583" width="36" height="36" rx="8" fill="url(#paint0_linear_268_196)"/>
</g>
<path d="M44.7013 34.6528H24.7437" stroke="#EDE5FD" stroke-width="2" stroke-linecap="round" stroke-linejoin="round"/>
<path d="M44.8576 40.653H24.8999" stroke="#EDE5FD" stroke-width="2" stroke-linecap="round" stroke-linejoin="round"/>
<path d="M29.7333 28.6528H27.2386H24.7439" stroke="#EDE5FD" stroke-width="2" stroke-linecap="round" stroke-linejoin="round"/>
<path d="M58 44C58 51.732 51.732 58 44 58C36.268 58 30 51.732 30 44C30 36.268 36.268 30 44 30C51.732 30 58 36.268 58 44Z" fill="url(#paint1_linear_268_196)"/>
<path d="M41.0833 39.625H50.5624" stroke="white" stroke-width="1.25" stroke-linecap="round" stroke-linejoin="round"/>
<path d="M41.0833 44H50.5624" stroke="white" stroke-width="1.25" stroke-linecap="round" stroke-linejoin="round"/>
<path d="M41.0833 48.375H50.5624" stroke="white" stroke-width="1.25" stroke-linecap="round" stroke-linejoin="round"/>
<path d="M37.4375 39.625H37.4448" stroke="white" stroke-width="2.25" stroke-linecap="round" stroke-linejoin="round"/>
<path d="M37.4375 44H37.4448" stroke="white" stroke-width="2.25" stroke-linecap="round" stroke-linejoin="round"/>
<path d="M37.4375 48.375H37.4448" stroke="white" stroke-width="2.25" stroke-linecap="round" stroke-linejoin="round"/>
<defs>
<filter id="filter0_d_268_196" x="10.8584" y="10.8583" width="48" height="48" filterUnits="userSpaceOnUse" color-interpolation-filters="sRGB">
<feFlood flood-opacity="0" result="BackgroundImageFix"/>
<feColorMatrix in="SourceAlpha" type="matrix" values="0 0 0 0 0 0 0 0 0 0 0 0 0 0 0 0 0 0 127 0" result="hardAlpha"/>
<feMorphology radius="2" operator="erode" in="SourceAlpha" result="effect1_dropShadow_268_196"/>
<feOffset/>
<feGaussianBlur stdDeviation="4"/>
<feColorMatrix type="matrix" values="0 0 0 0 0.443137 0 0 0 0 0.231373 0 0 0 0 0.858824 0 0 0 0.8 0"/>
<feBlend mode="normal" in2="BackgroundImageFix" result="effect1_dropShadow_268_196"/>
<feBlend mode="normal" in="SourceGraphic" in2="effect1_dropShadow_268_196" result="shape"/>
</filter>
<linearGradient id="paint0_linear_268_196" x1="21.8584" y1="19.8583" x2="48.3584" y2="52.8583" gradientUnits="userSpaceOnUse">
<stop stop-color="#B792FF"/>
<stop offset="1" stop-color="#713BDB"/>
</linearGradient>
<linearGradient id="paint1_linear_268_196" x1="44" y1="30" x2="44" y2="58" gradientUnits="userSpaceOnUse">
<stop stop-color="#35EAA6"/>
<stop offset="1" stop-color="#52CACC"/>
</linearGradient>
</defs>
</svg>
