<svg width="72" height="72" viewBox="0 0 72 72" fill="none" xmlns="http://www.w3.org/2000/svg">
<circle cx="36" cy="36" r="36" fill="#713BDB" fill-opacity="0.08"/>
<circle opacity="0.24" cx="9.61128" cy="26.076" r="2" transform="rotate(-20 9.61128 26.076)" fill="#FF8B58"/>
<circle opacity="0.24" cx="57.2238" cy="15.9171" r="2" transform="rotate(-20 57.2238 15.9171)" fill="#6F96FF"/>
<circle opacity="0.24" cx="37.6755" cy="61.533" r="2" transform="rotate(-20 37.6755 61.533)" fill="#713BDB"/>
<g filter="url(#filter0_d_268_162)">
<rect x="16.8584" y="16.8583" width="36" height="36" rx="8" fill="url(#paint0_linear_268_162)"/>
</g>
<path d="M44.7013 34.6529H24.7437" stroke="#EDE5FD" stroke-width="2" stroke-linecap="round" stroke-linejoin="round"/>
<path d="M44.8576 40.653H24.8999" stroke="#EDE5FD" stroke-width="2" stroke-linecap="round" stroke-linejoin="round"/>
<path d="M29.7333 28.6528H27.2386H24.7439" stroke="#EDE5FD" stroke-width="2" stroke-linecap="round" stroke-linejoin="round"/>
<path d="M58 44C58 51.732 51.732 58 44 58C36.268 58 30 51.732 30 44C30 36.268 36.268 30 44 30C51.732 30 58 36.268 58 44Z" fill="url(#paint1_linear_268_162)"/>
<path d="M45.4584 36.7083H39.6251C39.2383 36.7083 38.8674 36.862 38.5939 37.1355C38.3204 37.409 38.1667 37.7799 38.1667 38.1667V49.8333C38.1667 50.2201 38.3204 50.591 38.5939 50.8645C38.8674 51.138 39.2383 51.2917 39.6251 51.2917H48.3751C48.7619 51.2917 49.1328 51.138 49.4063 50.8645C49.6798 50.591 49.8334 50.2201 49.8334 49.8333V41.0833L45.4584 36.7083Z" stroke="white" stroke-width="1.25" stroke-linecap="round" stroke-linejoin="round"/>
<path d="M45.4583 36.7083V41.0833H49.8333" stroke="white" stroke-width="1.25" stroke-linecap="round" stroke-linejoin="round"/>
<path d="M35 43H35.0128" stroke="white" stroke-width="2" stroke-linecap="round" stroke-linejoin="round"/>
<path d="M35 46H35.0128" stroke="white" stroke-width="2" stroke-linecap="round" stroke-linejoin="round"/>
<path d="M35 49H35.0128" stroke="white" stroke-width="2" stroke-linecap="round" stroke-linejoin="round"/>
<defs>
<filter id="filter0_d_268_162" x="10.8584" y="10.8583" width="48" height="48" filterUnits="userSpaceOnUse" color-interpolation-filters="sRGB">
<feFlood flood-opacity="0" result="BackgroundImageFix"/>
<feColorMatrix in="SourceAlpha" type="matrix" values="0 0 0 0 0 0 0 0 0 0 0 0 0 0 0 0 0 0 127 0" result="hardAlpha"/>
<feMorphology radius="2" operator="erode" in="SourceAlpha" result="effect1_dropShadow_268_162"/>
<feOffset/>
<feGaussianBlur stdDeviation="4"/>
<feColorMatrix type="matrix" values="0 0 0 0 0.443137 0 0 0 0 0.231373 0 0 0 0 0.858824 0 0 0 0.8 0"/>
<feBlend mode="normal" in2="BackgroundImageFix" result="effect1_dropShadow_268_162"/>
<feBlend mode="normal" in="SourceGraphic" in2="effect1_dropShadow_268_162" result="shape"/>
</filter>
<linearGradient id="paint0_linear_268_162" x1="21.8584" y1="19.8583" x2="48.3584" y2="52.8583" gradientUnits="userSpaceOnUse">
<stop stop-color="#B792FF"/>
<stop offset="1" stop-color="#713BDB"/>
</linearGradient>
<linearGradient id="paint1_linear_268_162" x1="54.9349" y1="55.7604" x2="36.8172" y2="26.0082" gradientUnits="userSpaceOnUse">
<stop stop-color="#FF8B58"/>
<stop offset="1" stop-color="#FFD058"/>
</linearGradient>
</defs>
</svg>
