<svg width="72" height="72" viewBox="0 0 72 72" fill="none" xmlns="http://www.w3.org/2000/svg">
<circle cx="36" cy="36" r="36" fill="#713BDB" fill-opacity="0.08"/>
<circle opacity="0.24" cx="22.9391" cy="11.4353" r="2" transform="rotate(7 22.9391 11.4353)" fill="#FF8B58"/>
<circle opacity="0.24" cx="62.1891" cy="42.4474" r="2" transform="rotate(7 62.1891 42.4474)" fill="#6F96FF"/>
<circle opacity="0.24" cx="13.9679" cy="54.1129" r="2" transform="rotate(7 13.9679 54.1129)" fill="#713BDB"/>
<g filter="url(#filter0_d_268_179)">
<rect x="16.8584" y="16.8583" width="36" height="36" rx="8" fill="url(#paint0_linear_268_179)"/>
</g>
<path d="M44.7013 34.6529H24.7437" stroke="#EDE5FD" stroke-width="2" stroke-linecap="round" stroke-linejoin="round"/>
<path d="M44.8576 40.653H24.8999" stroke="#EDE5FD" stroke-width="2" stroke-linecap="round" stroke-linejoin="round"/>
<path d="M29.7333 28.6528H27.2386H24.7439" stroke="#EDE5FD" stroke-width="2" stroke-linecap="round" stroke-linejoin="round"/>
<path d="M58 44C58 51.732 51.732 58 44 58C36.268 58 30 51.732 30 44C30 36.268 36.268 30 44 30C51.732 30 58 36.268 58 44Z" fill="url(#paint1_linear_268_179)"/>
<path d="M38.1667 45.4583V48.375H49.8334V45.4583H38.1667Z" stroke="white" stroke-opacity="0.4" stroke-width="1.25" stroke-linecap="round" stroke-linejoin="round"/>
<path d="M38.1667 39.625V42.5417H49.8334V39.625H38.1667Z" fill="white" stroke="white" stroke-width="1.25" stroke-linecap="round" stroke-linejoin="round"/>
<defs>
<filter id="filter0_d_268_179" x="10.8584" y="10.8583" width="48" height="48" filterUnits="userSpaceOnUse" color-interpolation-filters="sRGB">
<feFlood flood-opacity="0" result="BackgroundImageFix"/>
<feColorMatrix in="SourceAlpha" type="matrix" values="0 0 0 0 0 0 0 0 0 0 0 0 0 0 0 0 0 0 127 0" result="hardAlpha"/>
<feMorphology radius="2" operator="erode" in="SourceAlpha" result="effect1_dropShadow_268_179"/>
<feOffset/>
<feGaussianBlur stdDeviation="4"/>
<feColorMatrix type="matrix" values="0 0 0 0 0.443137 0 0 0 0 0.231373 0 0 0 0 0.858824 0 0 0 0.8 0"/>
<feBlend mode="normal" in2="BackgroundImageFix" result="effect1_dropShadow_268_179"/>
<feBlend mode="normal" in="SourceGraphic" in2="effect1_dropShadow_268_179" result="shape"/>
</filter>
<linearGradient id="paint0_linear_268_179" x1="21.8584" y1="19.8583" x2="48.3584" y2="52.8583" gradientUnits="userSpaceOnUse">
<stop stop-color="#B792FF"/>
<stop offset="1" stop-color="#713BDB"/>
</linearGradient>
<linearGradient id="paint1_linear_268_179" x1="44" y1="30" x2="44" y2="58" gradientUnits="userSpaceOnUse">
<stop stop-color="#FA50D5"/>
<stop offset="1" stop-color="#FA5080"/>
</linearGradient>
</defs>
</svg>
