<svg width="72" height="72" viewBox="0 0 72 72" fill="none" xmlns="http://www.w3.org/2000/svg">
<circle cx="36" cy="36" r="36" fill="#713BDB" fill-opacity="0.08"/>
<circle opacity="0.24" cx="36" cy="8" r="2" fill="#FF8B58"/>
<circle opacity="0.24" cx="62" cy="29" r="2" fill="#6F96FF"/>
<circle opacity="0.24" cx="20" cy="58" r="2" fill="#713BDB"/>
<g filter="url(#filter0_d_284_182)">
<path d="M18 26C18 21.5817 21.5817 18 26 18H46C50.4183 18 54 21.5817 54 26V46C54 50.4183 50.4183 54 46 54H26C21.5817 54 18 50.4183 18 46V26Z" fill="url(#paint0_linear_284_182)"/>
</g>
<path fill-rule="evenodd" clip-rule="evenodd" d="M24.8853 35.7946C24.8853 35.2423 25.333 34.7946 25.8853 34.7946H45.8429C46.3952 34.7946 46.8429 35.2423 46.8429 35.7946C46.8429 36.3469 46.3952 36.7946 45.8429 36.7946H25.8853C25.333 36.7946 24.8853 36.3469 24.8853 35.7946Z" fill="#EDE5FD"/>
<path fill-rule="evenodd" clip-rule="evenodd" d="M25.0415 41.7947C25.0415 41.2424 25.4892 40.7947 26.0415 40.7947H45.9992C46.5515 40.7947 46.9992 41.2424 46.9992 41.7947C46.9992 42.347 46.5515 42.7947 45.9992 42.7947H26.0415C25.4892 42.7947 25.0415 42.347 25.0415 41.7947Z" fill="#EDE5FD"/>
<path fill-rule="evenodd" clip-rule="evenodd" d="M24.8855 29.7946C24.8855 29.2423 25.3332 28.7946 25.8855 28.7946H30.8749C31.4272 28.7946 31.8749 29.2423 31.8749 29.7946C31.8749 30.3468 31.4272 30.7946 30.8749 30.7946H25.8855C25.3332 30.7946 24.8855 30.3468 24.8855 29.7946Z" fill="#EDE5FD"/>
<path d="M58 44C58 51.732 51.732 58 44 58C36.268 58 30 51.732 30 44C30 36.268 36.268 30 44 30C51.732 30 58 36.268 58 44Z" fill="url(#paint1_linear_284_182)"/>
<path d="M51.724 46.5588C51.6395 46.5054 51.5428 46.4742 51.443 46.4682C51.3432 46.4622 51.2435 46.4815 51.1532 46.5244C50.9274 46.6313 50.6781 46.6794 50.4287 46.6642C50.1793 46.6489 49.9378 46.5708 49.7267 46.4372C49.5156 46.3036 49.3417 46.1187 49.2211 45.8998C49.1006 45.6809 49.0374 45.4351 49.0374 45.1852C49.0374 44.9354 49.1006 44.6895 49.2211 44.4707C49.3417 44.2518 49.5156 44.0669 49.7267 43.9333C49.9378 43.7996 50.1793 43.7215 50.4287 43.7063C50.6781 43.6911 50.9274 43.7391 51.1532 43.8461C51.2435 43.889 51.3432 43.9083 51.4431 43.9023C51.5429 43.8963 51.6395 43.8651 51.7241 43.8117C51.8086 43.7582 51.8782 43.6843 51.9265 43.5967C51.9747 43.5091 52 43.4107 52 43.3107V40.1482C51.9996 39.834 51.8746 39.5328 51.6524 39.3106C51.4302 39.0884 51.129 38.9634 50.8148 38.9631L48.132 38.9631C48.1428 38.8647 48.1482 38.7658 48.1482 38.6668C48.1476 38.3025 48.0726 37.9422 47.928 37.608C47.7833 37.2737 47.5719 36.9725 47.3068 36.7227C46.9395 36.3779 46.4821 36.1441 45.9875 36.0485C45.4929 35.9529 44.9813 35.9993 44.512 36.1824C44.0427 36.3656 43.6348 36.6779 43.3357 37.0833C43.0366 37.4886 42.8584 37.9704 42.8218 38.4728C42.8102 38.6362 42.8135 38.8003 42.8316 38.9631L40.1482 38.9631C39.8339 38.9631 39.5325 39.0879 39.3102 39.3102C39.0879 39.5325 38.9631 39.8339 38.9631 40.1482V42.5347C38.5512 42.4893 38.1344 42.5402 37.7456 42.6834C37.3568 42.8266 37.0066 43.0582 36.7226 43.36C36.3778 43.7272 36.1441 44.1847 36.0485 44.6793C35.9529 45.1739 35.9993 45.6855 36.1825 46.1548C36.3656 46.6241 36.6779 47.0319 37.0833 47.331C37.4886 47.6301 37.9704 47.8083 38.4728 47.8449C38.6362 47.8566 38.8003 47.8533 38.9631 47.8351V50.2222C38.9631 50.5366 39.0879 50.838 39.3102 51.0603C39.5325 51.2825 39.8339 51.4074 40.1482 51.4074H50.8148C51.129 51.407 51.4303 51.282 51.6525 51.0599C51.8746 50.8377 51.9996 50.5364 52 50.2222V47.0597C52 46.9597 51.9747 46.8614 51.9264 46.7738C51.8782 46.6862 51.8085 46.6122 51.724 46.5588V46.5588ZM50.8148 50.2222H40.1482V47.0597C40.1483 46.9597 40.123 46.8614 40.0747 46.7738C40.0265 46.6862 39.9568 46.6122 39.8723 46.5588C39.7878 46.5054 39.6911 46.4742 39.5913 46.4682C39.4915 46.4622 39.3918 46.4815 39.3014 46.5244C39.0756 46.6312 38.8265 46.6792 38.5772 46.6639C38.3278 46.6486 38.0864 46.5705 37.8754 46.4369C37.6643 46.3033 37.4905 46.1184 37.37 45.8996C37.2496 45.6808 37.1864 45.435 37.1864 45.1852C37.1864 44.9354 37.2496 44.6897 37.37 44.4709C37.4905 44.252 37.6643 44.0672 37.8754 43.9336C38.0864 43.7999 38.3278 43.7218 38.5772 43.7065C38.8265 43.6912 39.0756 43.7392 39.3014 43.8461C39.3918 43.889 39.4915 43.9083 39.5913 43.9023C39.6911 43.8963 39.7878 43.8651 39.8723 43.8117C39.9568 43.7582 40.0265 43.6843 40.0747 43.5967C40.123 43.5091 40.1483 43.4107 40.1482 43.3107V40.1482L43.607 40.1483C43.707 40.1483 43.8054 40.123 43.893 40.0748C43.9806 40.0265 44.0546 39.9569 44.108 39.8724C44.1614 39.7878 44.1926 39.6911 44.1986 39.5913C44.2046 39.4915 44.1853 39.3918 44.1424 39.3014C44.0355 39.0756 43.9875 38.8265 44.0028 38.5772C44.0181 38.3278 44.0962 38.0864 44.2299 37.8754C44.3635 37.6643 44.5483 37.4905 44.7672 37.37C44.986 37.2496 45.2317 37.1864 45.4815 37.1864C45.7313 37.1864 45.9771 37.2496 46.1959 37.37C46.4147 37.4905 46.5996 37.6643 46.7332 37.8754C46.8668 38.0864 46.9449 38.3278 46.9602 38.5772C46.9755 38.8265 46.9275 39.0756 46.8207 39.3014C46.7778 39.3918 46.7584 39.4915 46.7644 39.5913C46.7704 39.6911 46.8016 39.7878 46.855 39.8723C46.9085 39.9569 46.9824 40.0265 47.07 40.0747C47.1576 40.123 47.256 40.1483 47.356 40.1483L50.8148 40.1482V42.5353C50.4563 42.495 50.0932 42.5279 49.7477 42.632C49.4023 42.7361 49.0815 42.9093 48.805 43.1411C48.5284 43.3729 48.3018 43.6584 48.1389 43.9804C47.976 44.3023 47.8802 44.654 47.8572 45.0141C47.8325 45.3784 47.8835 45.7437 48.0069 46.0873C48.1303 46.4309 48.3236 46.7452 48.5744 47.0104C48.8583 47.3122 49.2085 47.5438 49.5974 47.6871C49.9862 47.8303 50.403 47.8812 50.8148 47.8358V50.2222Z" fill="white"/>
<defs>
<filter id="filter0_d_284_182" x="10" y="10" width="52" height="52" filterUnits="userSpaceOnUse" color-interpolation-filters="sRGB">
<feFlood flood-opacity="0" result="BackgroundImageFix"/>
<feColorMatrix in="SourceAlpha" type="matrix" values="0 0 0 0 0 0 0 0 0 0 0 0 0 0 0 0 0 0 127 0" result="hardAlpha"/>
<feOffset/>
<feGaussianBlur stdDeviation="4"/>
<feColorMatrix type="matrix" values="0 0 0 0 0.443137 0 0 0 0 0.231373 0 0 0 0 0.858824 0 0 0 0.8 0"/>
<feBlend mode="normal" in2="BackgroundImageFix" result="effect1_dropShadow_284_182"/>
<feBlend mode="normal" in="SourceGraphic" in2="effect1_dropShadow_284_182" result="shape"/>
</filter>
<linearGradient id="paint0_linear_284_182" x1="23" y1="21" x2="49.5" y2="54" gradientUnits="userSpaceOnUse">
<stop stop-color="#B792FF"/>
<stop offset="1" stop-color="#713BDB"/>
</linearGradient>
<linearGradient id="paint1_linear_284_182" x1="44" y1="30" x2="44" y2="58" gradientUnits="userSpaceOnUse">
<stop stop-color="#35EAA6"/>
<stop offset="1" stop-color="#52CACC"/>
</linearGradient>
</defs>
</svg>
