<svg width="72" height="72" viewBox="0 0 72 72" fill="none" xmlns="http://www.w3.org/2000/svg">
<circle cx="36" cy="36" r="36" fill="#FF8B58" fill-opacity="0.08"/>
<circle opacity="0.24" cx="36" cy="8.00001" r="2" fill="#FF8B58"/>
<circle opacity="0.24" cx="62" cy="29" r="2" fill="#6F96FF"/>
<circle opacity="0.24" cx="20" cy="58" r="2" fill="#713BDB"/>
<rect x="18" y="18" width="36" height="36" rx="8" fill="url(#paint0_linear_313_174)"/>
<path d="M40.5 33.4L31.5 28.21" stroke="#FFF0DD" stroke-width="1.25" stroke-linecap="round" stroke-linejoin="round"/>
<path d="M45 40V32C44.9996 31.6493 44.9071 31.3048 44.7315 31.0012C44.556 30.6975 44.3037 30.4454 44 30.27L37 26.27C36.696 26.0945 36.3511 26.002 36 26.002C35.6489 26.002 35.304 26.0945 35 26.27L28 30.27C27.6963 30.4454 27.444 30.6975 27.2685 31.0012C27.0929 31.3048 27.0004 31.6493 27 32V40C27.0004 40.3507 27.0929 40.6952 27.2685 40.9988C27.444 41.3025 27.6963 41.5546 28 41.73L35 45.73C35.304 45.9055 35.6489 45.9979 36 45.9979C36.3511 45.9979 36.696 45.9055 37 45.73L44 41.73C44.3037 41.5546 44.556 41.3025 44.7315 40.9988C44.9071 40.6952 44.9996 40.3507 45 40Z" stroke="#FFF0DD" stroke-width="1.25" stroke-linecap="round" stroke-linejoin="round"/>
<path d="M27.27 30.96L36 36.01L44.73 30.96" stroke="#FFF0DD" stroke-width="1.25" stroke-linecap="round" stroke-linejoin="round"/>
<path d="M36 46.08V36" stroke="#FFF0DD" stroke-width="1.25" stroke-linecap="round" stroke-linejoin="round"/>
<path d="M58 44C58 51.732 51.732 58 44 58C36.268 58 30 51.732 30 44C30 36.268 36.268 30 44 30C51.732 30 58 36.268 58 44Z" fill="url(#paint1_linear_313_174)"/>
<path d="M41.0833 39.625H50.5624" stroke="white" stroke-width="1.25" stroke-linecap="round" stroke-linejoin="round"/>
<path d="M41.0833 44H50.5624" stroke="white" stroke-width="1.25" stroke-linecap="round" stroke-linejoin="round"/>
<path d="M41.0833 48.375H50.5624" stroke="white" stroke-width="1.25" stroke-linecap="round" stroke-linejoin="round"/>
<path d="M37.4375 39.625H37.4448" stroke="white" stroke-width="2.25" stroke-linecap="round" stroke-linejoin="round"/>
<path d="M37.4375 44H37.4448" stroke="white" stroke-width="2.25" stroke-linecap="round" stroke-linejoin="round"/>
<path d="M37.4375 48.375H37.4448" stroke="white" stroke-width="2.25" stroke-linecap="round" stroke-linejoin="round"/>
<defs>
<linearGradient id="paint0_linear_313_174" x1="50.0592" y1="51.1205" x2="26.7649" y2="12.8677" gradientUnits="userSpaceOnUse">
<stop stop-color="#FF8B58"/>
<stop offset="1" stop-color="#FFD058"/>
</linearGradient>
<linearGradient id="paint1_linear_313_174" x1="44" y1="30" x2="44" y2="58" gradientUnits="userSpaceOnUse">
<stop stop-color="#35EAA6"/>
<stop offset="1" stop-color="#52CACC"/>
</linearGradient>
</defs>
</svg>
