<svg width="72" height="72" viewBox="0 0 72 72" fill="none" xmlns="http://www.w3.org/2000/svg">
<circle cx="36" cy="36" r="36" fill="#713BDB" fill-opacity="0.08"/>
<circle opacity="0.24" cx="36" cy="8.00001" r="2" fill="#FF8B58"/>
<circle opacity="0.24" cx="62" cy="29" r="2" fill="#6F96FF"/>
<circle opacity="0.24" cx="20" cy="58" r="2" fill="#713BDB"/>
<g filter="url(#filter0_d_481_161)">
<path d="M18 26C18 21.5817 21.5817 18 26 18H46C50.4183 18 54 21.5817 54 26V46C54 50.4183 50.4183 54 46 54H26C21.5817 54 18 50.4183 18 46V26Z" fill="url(#paint0_linear_481_161)"/>
</g>
<path opacity="0.2" d="M31.625 39.5C34.7661 39.5 37.3125 36.9536 37.3125 33.8125C37.3125 30.6714 34.7661 28.125 31.625 28.125C28.4839 28.125 25.9375 30.6714 25.9375 33.8125C25.9375 36.9536 28.4839 39.5 31.625 39.5Z" fill="white" fill-opacity="0.8"/>
<path d="M35.2562 39.2756C36.4302 38.4957 37.3219 37.3586 37.7994 36.0326C38.277 34.7065 38.3149 33.262 37.9076 31.9127C37.5003 30.5634 36.6694 29.3811 35.5379 28.5408C34.4065 27.7004 33.0345 27.2467 31.6251 27.2467C30.2157 27.2467 28.8437 27.7004 27.7122 28.5408C26.5807 29.3811 25.7499 30.5634 25.3426 31.9127C24.9353 33.262 24.9732 34.7065 25.4507 36.0326C25.9282 37.3586 26.82 38.4957 27.994 39.2756C25.9927 40.0138 24.263 41.3428 23.0342 43.0864C22.9671 43.1803 22.9193 43.2866 22.8935 43.399C22.8677 43.5115 22.8644 43.628 22.8838 43.7417C22.9031 43.8555 22.9448 43.9643 23.0064 44.0618C23.068 44.1594 23.1483 44.2438 23.2427 44.3103C23.337 44.3767 23.4436 44.4238 23.5562 44.4489C23.6688 44.4739 23.7853 44.4765 23.8989 44.4564C24.0126 44.4362 24.1211 44.3938 24.2182 44.3316C24.3154 44.2694 24.3993 44.1885 24.4651 44.0938C25.2726 42.945 26.3447 42.0074 27.5908 41.3601C28.837 40.7128 30.2205 40.3749 31.6247 40.3749C33.0289 40.3748 34.4125 40.7127 35.6587 41.3599C36.9049 42.0071 37.977 42.9446 38.7846 44.0933C38.8507 44.1874 38.9347 44.2676 39.0318 44.3292C39.1289 44.3908 39.2372 44.4326 39.3505 44.4524C39.4637 44.4721 39.5798 44.4693 39.692 44.4442C39.8042 44.419 39.9104 44.372 40.0044 44.3058C40.0984 44.2396 40.1784 44.1555 40.2399 44.0583C40.3014 43.9612 40.3432 43.8528 40.3628 43.7395C40.3824 43.6262 40.3795 43.5101 40.3542 43.398C40.3289 43.2858 40.2818 43.1797 40.2154 43.0858C38.9867 41.3424 37.2572 40.0137 35.2562 39.2755V39.2756ZM26.8125 33.8125C26.8125 32.8607 27.0948 31.9302 27.6236 31.1388C28.1524 30.3474 28.904 29.7306 29.7834 29.3663C30.6627 29.0021 31.6304 28.9068 32.5639 29.0925C33.4974 29.2782 34.3549 29.7365 35.028 30.4096C35.701 31.0826 36.1594 31.9401 36.3451 32.8736C36.5307 33.8072 36.4354 34.7748 36.0712 35.6542C35.7069 36.5335 35.0901 37.2851 34.2987 37.814C33.5073 38.3428 32.5768 38.625 31.625 38.625C30.3491 38.6236 29.1259 38.1161 28.2237 37.2139C27.3215 36.3117 26.814 35.0884 26.8125 33.8125V33.8125Z" fill="white" fill-opacity="0.8"/>
<path d="M49.132 43.0859C47.9032 41.3425 46.1737 40.0137 44.1726 39.2756C45.4738 38.4096 46.4232 37.1076 46.8499 35.6039C47.2766 34.1002 47.1526 32.4936 46.5002 31.0732C45.8478 29.6529 44.7098 28.512 43.2911 27.8559C41.8724 27.1999 40.2662 27.0717 38.7614 27.4946C38.5388 27.5581 38.3504 27.7072 38.2375 27.9094C38.1246 28.1115 38.0965 28.3501 38.1592 28.573C38.2219 28.7958 38.3703 28.9847 38.572 29.0984C38.7737 29.212 39.0122 29.241 39.2353 29.1792C39.8972 28.9926 40.5915 28.9501 41.2712 29.0544C41.951 29.1588 42.6005 29.4076 43.176 29.7841C43.7515 30.1606 44.2396 30.656 44.6075 31.2371C44.9754 31.8181 45.2145 32.4713 45.3087 33.1525C45.4029 33.8338 45.3501 34.5273 45.1537 35.1864C44.9573 35.8454 44.6219 36.4548 44.1702 36.9733C43.7185 37.4919 43.1609 37.9076 42.5349 38.1925C41.909 38.4775 41.2293 38.6249 40.5416 38.625C40.3095 38.625 40.087 38.7172 39.9229 38.8813C39.7588 39.0454 39.6666 39.2679 39.6666 39.5C39.6666 39.7321 39.7588 39.9546 39.9229 40.1187C40.087 40.2828 40.3095 40.375 40.5416 40.375C41.9455 40.3764 43.3286 40.7148 44.5745 41.3619C45.8204 42.0089 46.8927 42.9457 47.7013 44.0934C47.8359 44.2805 48.0389 44.407 48.2663 44.4452C48.4936 44.4835 48.7268 44.4305 48.9153 44.2978C49.1038 44.165 49.2323 43.9633 49.2728 43.7364C49.3134 43.5094 49.2628 43.2757 49.132 43.0859V43.0859Z" fill="white" fill-opacity="0.8"/>
<path d="M58 44C58 51.732 51.732 58 44 58C36.268 58 30 51.732 30 44C30 36.268 36.268 30 44 30C51.732 30 58 36.268 58 44Z" fill="url(#paint1_linear_481_161)"/>
<g clip-path="url(#clip0_481_161)">
<path d="M42.875 47.75C42.875 48.0152 42.9804 48.2696 43.1679 48.4571C43.3554 48.6446 43.6098 48.75 43.875 48.75H49.875L51.875 50.75V42.75C51.875 42.4848 51.7696 42.2304 51.5821 42.0429C51.3946 41.8554 51.1402 41.75 50.875 41.75H43.875C43.6098 41.75 43.3554 41.8554 43.1679 42.0429C42.9804 42.2304 42.875 42.4848 42.875 42.75V47.75Z" fill="white" fill-opacity="0.6"/>
<path d="M46.25 44.375C46.25 44.6402 46.1446 44.8946 45.9571 45.0821C45.7696 45.2696 45.5152 45.375 45.25 45.375H39.25L37.25 47.375V39.375C37.25 39.1098 37.3554 38.8554 37.5429 38.6679C37.7304 38.4804 37.9848 38.375 38.25 38.375H45.25C45.5152 38.375 45.7696 38.4804 45.9571 38.6679C46.1446 38.8554 46.25 39.1098 46.25 39.375V44.375Z" stroke="white" stroke-width="1.25" stroke-linecap="round" stroke-linejoin="round"/>
</g>
<defs>
<filter id="filter0_d_481_161" x="10" y="10" width="52" height="52" filterUnits="userSpaceOnUse" color-interpolation-filters="sRGB">
<feFlood flood-opacity="0" result="BackgroundImageFix"/>
<feColorMatrix in="SourceAlpha" type="matrix" values="0 0 0 0 0 0 0 0 0 0 0 0 0 0 0 0 0 0 127 0" result="hardAlpha"/>
<feOffset/>
<feGaussianBlur stdDeviation="4"/>
<feColorMatrix type="matrix" values="0 0 0 0 0.443137 0 0 0 0 0.231373 0 0 0 0 0.858824 0 0 0 0.8 0"/>
<feBlend mode="normal" in2="BackgroundImageFix" result="effect1_dropShadow_481_161"/>
<feBlend mode="normal" in="SourceGraphic" in2="effect1_dropShadow_481_161" result="shape"/>
</filter>
<linearGradient id="paint0_linear_481_161" x1="23" y1="21" x2="49.5" y2="54" gradientUnits="userSpaceOnUse">
<stop stop-color="#B792FF"/>
<stop offset="1" stop-color="#713BDB"/>
</linearGradient>
<linearGradient id="paint1_linear_481_161" x1="54.9349" y1="55.7604" x2="36.8172" y2="26.0082" gradientUnits="userSpaceOnUse">
<stop stop-color="#FF8B58"/>
<stop offset="1" stop-color="#FFD058"/>
</linearGradient>
<clipPath id="clip0_481_161">
<rect width="17.5" height="17.5" fill="white" transform="translate(35 35)"/>
</clipPath>
</defs>
</svg>
