<svg width="72" height="72" viewBox="0 0 72 72" fill="none" xmlns="http://www.w3.org/2000/svg">
<circle cx="36" cy="36" r="36" fill="#FF8B58" fill-opacity="0.08"/>
<circle opacity="0.24" cx="36" cy="8" r="2" fill="#FF8B58"/>
<circle opacity="0.24" cx="62" cy="29" r="2" fill="#6F96FF"/>
<circle opacity="0.24" cx="20" cy="58" r="2" fill="#713BDB"/>
<rect x="18" y="18" width="36" height="36" rx="8" fill="url(#paint0_linear_455_128)"/>
<path d="M36.3406 45.5893C41.8634 45.5893 46.3406 41.1121 46.3406 35.5893C46.3406 30.0664 41.8634 25.5893 36.3406 25.5893C30.8177 25.5893 26.3406 30.0664 26.3406 35.5893C26.3406 41.1121 30.8177 45.5893 36.3406 45.5893Z" stroke="white" stroke-width="2" stroke-linecap="round" stroke-linejoin="round"/>
<path d="M26.3406 35.5893H46.3406" stroke="white" stroke-width="2" stroke-linecap="round" stroke-linejoin="round"/>
<path d="M36.3406 25.5893C38.8419 28.3276 40.2633 31.8813 40.3406 35.5893C40.2633 39.2972 38.8419 42.8509 36.3406 45.5893C33.8393 42.8509 32.4178 39.2972 32.3406 35.5893C32.4178 31.8813 33.8393 28.3276 36.3406 25.5893V25.5893Z" stroke="white" stroke-width="2" stroke-linecap="round" stroke-linejoin="round"/>
<path d="M58 44C58 51.732 51.732 58 44 58C36.268 58 30 51.732 30 44C30 36.268 36.268 30 44 30C51.732 30 58 36.268 58 44Z" fill="url(#paint1_linear_455_128)"/>
<path d="M35.5689 48H36.9528V45.2962H39.6151V44.1552H36.9528V42.5955H39.9027V41.4545H35.5689V48ZM41.1444 48L41.6301 46.5075H43.992L44.4778 48H45.9608L43.7044 41.4545H41.921L39.6614 48H41.1444ZM41.9817 45.4272L42.7871 42.9503H42.8382L43.6436 45.4272H41.9817ZM52.4559 44.7273C52.4559 42.5859 51.1263 41.3651 49.3909 41.3651C47.6459 41.3651 46.3259 42.5859 46.3259 44.7273C46.3259 46.859 47.6459 48.0895 49.3909 48.0895C49.8 48.0895 50.1867 48.0224 50.5383 47.8881L51.0656 48.5369H52.3568L51.4204 47.3608C52.0596 46.7887 52.4559 45.8938 52.4559 44.7273ZM48.9115 45.7244L49.7488 46.8303C49.637 46.8526 49.5155 46.8654 49.3909 46.8654C48.3841 46.8654 47.729 46.1143 47.729 44.7273C47.729 43.3402 48.3841 42.5891 49.3909 42.5891C50.3944 42.5891 51.0528 43.3402 51.0528 44.7273C51.0528 45.44 50.877 45.9865 50.5734 46.3477L50.0876 45.7244H48.9115Z" fill="white"/>
<defs>
<linearGradient id="paint0_linear_455_128" x1="50.0592" y1="51.1205" x2="26.7649" y2="12.8677" gradientUnits="userSpaceOnUse">
<stop stop-color="#FF8B58"/>
<stop offset="1" stop-color="#FFD058"/>
</linearGradient>
<linearGradient id="paint1_linear_455_128" x1="33.8889" y1="32.3333" x2="54.5" y2="58" gradientUnits="userSpaceOnUse">
<stop stop-color="#B792FF"/>
<stop offset="1" stop-color="#713BDB"/>
</linearGradient>
</defs>
</svg>
