<svg width="24" height="24" viewBox="0 0 24 24" fill="none" xmlns="http://www.w3.org/2000/svg">
<g clip-path="url(#clip0_1383_19199)">
<path d="M21.2094 16.0012C20.5732 17.5056 19.5782 18.8314 18.3113 19.8625C17.0444 20.8935 15.5442 21.5986 13.9419 21.9159C12.3395 22.2333 10.6838 22.1533 9.11957 21.683C7.5553 21.2126 6.13005 20.3662 4.96845 19.2178C3.80684 18.0694 2.94424 16.6539 2.45606 15.0951C1.96788 13.5363 1.86899 11.8816 2.16802 10.2758C2.46706 8.66994 3.15492 7.16179 4.17147 5.88319C5.18802 4.60459 6.50231 3.59448 7.99943 2.94116" stroke="#4970FE" stroke-width="1.5" stroke-linecap="round" stroke-linejoin="round"/>
<path d="M22 12.1112C22 10.798 21.7413 9.49763 21.2388 8.28437C20.7363 7.07112 19.9997 5.96872 19.0711 5.04014C18.1425 4.11155 17.0401 3.37496 15.8268 2.87241C14.6136 2.36986 13.3132 2.11121 12 2.11121V12.1112H22Z" stroke="#34D396" stroke-width="1.5" stroke-linecap="round" stroke-linejoin="round"/>
</g>
<defs>
<clipPath id="clip0_1383_19199">
<rect width="24" height="24" fill="white"/>
</clipPath>
</defs>
</svg>
