<svg width="28" height="28" viewBox="0 0 28 28" fill="none" xmlns="http://www.w3.org/2000/svg">
<path d="M14.0993 8.63094C14.1974 8.4756 14.4239 8.4756 14.522 8.63094L26.5129 27.6165C26.618 27.7829 26.4984 28 26.3015 28H2.31979C2.1229 28 2.00328 27.7829 2.10842 27.6165L14.0993 8.63094Z" fill="#9A66FF"/>
<path d="M25.0958 10.7852C25.0958 16.7417 20.2671 21.5704 14.3106 21.5704C8.35408 21.5704 3.52539 16.7417 3.52539 10.7852C3.52539 4.82869 8.35408 0 14.3106 0C20.2671 0 25.0958 4.82869 25.0958 10.7852Z" fill="url(#paint0_linear_1383_19146)"/>
<path d="M7.47168 19.125L14.1355 8.57395C14.2169 8.44508 14.4048 8.44508 14.4862 8.57395L21.1501 19.125C19.2888 20.6531 16.907 21.5704 14.3109 21.5704C11.7148 21.5704 9.3329 20.6531 7.47168 19.125Z" fill="url(#paint1_linear_1383_19146)"/>
<defs>
<linearGradient id="paint0_linear_1383_19146" x1="14.3048" y1="-0.00354332" x2="14.3048" y2="21.5704" gradientUnits="userSpaceOnUse">
<stop offset="0.26" stop-color="#FF5091"/>
<stop offset="0.91" stop-color="#E03071"/>
</linearGradient>
<linearGradient id="paint1_linear_1383_19146" x1="14.3104" y1="8.47729" x2="14.3104" y2="21.5704" gradientUnits="userSpaceOnUse">
<stop stop-color="#9860FE"/>
<stop offset="0.9999" stop-color="#6E00F5"/>
<stop offset="1" stop-color="#9860FE"/>
</linearGradient>
</defs>
</svg>
