<svg width="18" height="18" viewBox="0 0 18 18" fill="none" xmlns="http://www.w3.org/2000/svg">
<path d="M7.12501 7.87499H9.00001C9.19892 7.87499 9.38968 7.79597 9.53034 7.65532C9.67099 7.51467 9.75001 7.3239 9.75001 7.12499C9.75001 6.92608 9.67099 6.73531 9.53034 6.59466C9.38968 6.45401 9.19892 6.37499 9.00001 6.37499H8.25001V5.99999C8.25001 5.80108 8.17099 5.61031 8.03034 5.46966C7.88968 5.32901 7.69892 5.24999 7.50001 5.24999C7.30109 5.24999 7.11033 5.32901 6.96968 5.46966C6.82902 5.61031 6.75001 5.80108 6.75001 5.99999V6.41249C6.29432 6.50502 5.88928 6.76357 5.6135 7.13794C5.33772 7.51231 5.21088 7.9758 5.25761 8.43843C5.30434 8.90105 5.52131 9.32982 5.86638 9.64148C6.21146 9.95314 6.66002 10.1255 7.12501 10.125H7.87501C7.97446 10.125 8.06984 10.1645 8.14017 10.2348C8.2105 10.3052 8.25001 10.4005 8.25001 10.5C8.25001 10.5994 8.2105 10.6948 8.14017 10.7652C8.06984 10.8355 7.97446 10.875 7.87501 10.875H6.00001C5.80109 10.875 5.61033 10.954 5.46968 11.0947C5.32902 11.2353 5.25001 11.4261 5.25001 11.625C5.25001 11.8239 5.32902 12.0147 5.46968 12.1553C5.61033 12.296 5.80109 12.375 6.00001 12.375H6.75001V12.75C6.75001 12.9489 6.82902 13.1397 6.96968 13.2803C7.11033 13.421 7.30109 13.5 7.50001 13.5C7.69892 13.5 7.88968 13.421 8.03034 13.2803C8.17099 13.1397 8.25001 12.9489 8.25001 12.75V12.3375C8.70569 12.245 9.11073 11.9864 9.38651 11.612C9.66229 11.2377 9.78913 10.7742 9.7424 10.3116C9.69567 9.84893 9.47871 9.42017 9.13363 9.10851C8.78856 8.79685 8.33999 8.62452 7.87501 8.62499H7.12501C7.02555 8.62499 6.93017 8.58548 6.85984 8.51516C6.78951 8.44483 6.75001 8.34945 6.75001 8.24999C6.75001 8.15053 6.78951 8.05515 6.85984 7.98483C6.93017 7.9145 7.02555 7.87499 7.12501 7.87499ZM15.75 8.99999H13.5V2.24999C13.5005 2.11783 13.4661 1.98788 13.4003 1.8733C13.3344 1.75872 13.2395 1.66357 13.125 1.59749C13.011 1.53166 12.8817 1.49701 12.75 1.49701C12.6184 1.49701 12.489 1.53166 12.375 1.59749L10.125 2.88749L7.87501 1.59749C7.76099 1.53166 7.63166 1.49701 7.50001 1.49701C7.36835 1.49701 7.23902 1.53166 7.12501 1.59749L4.87501 2.88749L2.62501 1.59749C2.51099 1.53166 2.38166 1.49701 2.25001 1.49701C2.11835 1.49701 1.98902 1.53166 1.87501 1.59749C1.76055 1.66357 1.66559 1.75872 1.59974 1.8733C1.53389 1.98788 1.49948 2.11783 1.50001 2.24999V14.25C1.50001 14.8467 1.73706 15.419 2.15902 15.841C2.58097 16.2629 3.15327 16.5 3.75001 16.5H14.25C14.8467 16.5 15.419 16.2629 15.841 15.841C16.263 15.419 16.5 14.8467 16.5 14.25V9.74999C16.5 9.55108 16.421 9.36031 16.2803 9.21966C16.1397 9.07901 15.9489 8.99999 15.75 8.99999ZM3.75001 15C3.55109 15 3.36033 14.921 3.21968 14.7803C3.07902 14.6397 3.00001 14.4489 3.00001 14.25V3.54749L4.50001 4.40249C4.61576 4.46295 4.74441 4.49452 4.87501 4.49452C5.0056 4.49452 5.13425 4.46295 5.25001 4.40249L7.50001 3.11249L9.75001 4.40249C9.86576 4.46295 9.99441 4.49452 10.125 4.49452C10.2556 4.49452 10.3843 4.46295 10.5 4.40249L12 3.54749V14.25C12.002 14.5058 12.0477 14.7595 12.135 15H3.75001ZM15 14.25C15 14.4489 14.921 14.6397 14.7803 14.7803C14.6397 14.921 14.4489 15 14.25 15C14.0511 15 13.8603 14.921 13.7197 14.7803C13.579 14.6397 13.5 14.4489 13.5 14.25V10.5H15V14.25Z" fill="#172B4D" stroke="white" stroke-width="0.6"/>
</svg>
