<svg width="20" height="20" viewBox="0 0 20 20" fill="none" xmlns="http://www.w3.org/2000/svg">
<path d="M6.04163 10C5.87587 10 5.71689 10.0659 5.59968 10.1831C5.48247 10.3003 5.41663 10.4593 5.41663 10.625C5.41663 10.7908 5.48247 10.9498 5.59968 11.067C5.71689 11.1842 5.87587 11.25 6.04163 11.25H6.45829C6.62405 11.25 6.78302 11.1842 6.90023 11.067C7.01744 10.9498 7.08329 10.7908 7.08329 10.625C7.08329 10.4593 7.01744 10.3003 6.90023 10.1831C6.78302 10.0659 6.62405 10 6.45829 10H6.04163ZM5.41663 7.70835C5.41663 7.54259 5.48247 7.38362 5.59968 7.26641C5.71689 7.1492 5.87587 7.08335 6.04163 7.08335H6.45829C6.62405 7.08335 6.78302 7.1492 6.90023 7.26641C7.01744 7.38362 7.08329 7.54259 7.08329 7.70835C7.08329 7.87411 7.01744 8.03309 6.90023 8.1503C6.78302 8.26751 6.62405 8.33335 6.45829 8.33335H6.04163C5.87587 8.33335 5.71689 8.26751 5.59968 8.1503C5.48247 8.03309 5.41663 7.87411 5.41663 7.70835ZM6.04163 4.16669C5.87587 4.16669 5.71689 4.23253 5.59968 4.34975C5.48247 4.46696 5.41663 4.62593 5.41663 4.79169C5.41663 4.95745 5.48247 5.11642 5.59968 5.23363C5.71689 5.35084 5.87587 5.41669 6.04163 5.41669H6.45829C6.62405 5.41669 6.78302 5.35084 6.90023 5.23363C7.01744 5.11642 7.08329 4.95745 7.08329 4.79169C7.08329 4.62593 7.01744 4.46696 6.90023 4.34975C6.78302 4.23253 6.62405 4.16669 6.45829 4.16669H6.04163ZM8.33329 10.625C8.33329 10.4593 8.39914 10.3003 8.51635 10.1831C8.63356 10.0659 8.79253 10 8.95829 10H9.37496C9.54072 10 9.69969 10.0659 9.8169 10.1831C9.93411 10.3003 9.99996 10.4593 9.99996 10.625C9.99996 10.7908 9.93411 10.9498 9.8169 11.067C9.69969 11.1842 9.54072 11.25 9.37496 11.25H8.95829C8.79253 11.25 8.63356 11.1842 8.51635 11.067C8.39914 10.9498 8.33329 10.7908 8.33329 10.625ZM8.95829 7.08335C8.79253 7.08335 8.63356 7.1492 8.51635 7.26641C8.39914 7.38362 8.33329 7.54259 8.33329 7.70835C8.33329 7.87411 8.39914 8.03309 8.51635 8.1503C8.63356 8.26751 8.79253 8.33335 8.95829 8.33335H9.37496C9.54072 8.33335 9.69969 8.26751 9.8169 8.1503C9.93411 8.03309 9.99996 7.87411 9.99996 7.70835C9.99996 7.54259 9.93411 7.38362 9.8169 7.26641C9.69969 7.1492 9.54072 7.08335 9.37496 7.08335H8.95829ZM8.33329 4.79169C8.33329 4.62593 8.39914 4.46696 8.51635 4.34975C8.63356 4.23253 8.79253 4.16669 8.95829 4.16669H9.37496C9.54072 4.16669 9.69969 4.23253 9.8169 4.34975C9.93411 4.46696 9.99996 4.62593 9.99996 4.79169C9.99996 4.95745 9.93411 5.11642 9.8169 5.23363C9.69969 5.35084 9.54072 5.41669 9.37496 5.41669H8.95829C8.79253 5.41669 8.63356 5.35084 8.51635 5.23363C8.39914 5.11642 8.33329 4.95745 8.33329 4.79169ZM11.875 10C11.7092 10 11.5502 10.0659 11.433 10.1831C11.3158 10.3003 11.25 10.4593 11.25 10.625C11.25 10.7908 11.3158 10.9498 11.433 11.067C11.5502 11.1842 11.7092 11.25 11.875 11.25H12.2916C12.4574 11.25 12.6164 11.1842 12.7336 11.067C12.8508 10.9498 12.9166 10.7908 12.9166 10.625C12.9166 10.4593 12.8508 10.3003 12.7336 10.1831C12.6164 10.0659 12.4574 10 12.2916 10H11.875ZM11.25 7.70835C11.25 7.54259 11.3158 7.38362 11.433 7.26641C11.5502 7.1492 11.7092 7.08335 11.875 7.08335H12.2916C12.4574 7.08335 12.6164 7.1492 12.7336 7.26641C12.8508 7.38362 12.9166 7.54259 12.9166 7.70835C12.9166 7.87411 12.8508 8.03309 12.7336 8.1503C12.6164 8.26751 12.4574 8.33335 12.2916 8.33335H11.875C11.7092 8.33335 11.5502 8.26751 11.433 8.1503C11.3158 8.03309 11.25 7.87411 11.25 7.70835ZM11.875 4.16669C11.7092 4.16669 11.5502 4.23253 11.433 4.34975C11.3158 4.46696 11.25 4.62593 11.25 4.79169C11.25 4.95745 11.3158 5.11642 11.433 5.23363C11.5502 5.35084 11.7092 5.41669 11.875 5.41669H12.2916C12.4574 5.41669 12.6164 5.35084 12.7336 5.23363C12.8508 5.11642 12.9166 4.95745 12.9166 4.79169C12.9166 4.62593 12.8508 4.46696 12.7336 4.34975C12.6164 4.23253 12.4574 4.16669 12.2916 4.16669H11.875Z" fill="#172B4D"/>
<path fill-rule="evenodd" clip-rule="evenodd" d="M2.5 16.6666C2.5 17.1087 2.67559 17.5326 2.98816 17.8452C3.30072 18.1577 3.72464 18.3333 4.16667 18.3333H7.29167C7.45743 18.3333 7.6164 18.2675 7.73361 18.1503C7.85082 18.033 7.91667 17.8741 7.91667 17.7083V15.8333H10.4167V17.7083C10.4167 18.0533 10.6967 18.3333 11.0417 18.3333H14.1667C14.2433 18.3333 14.3192 18.3283 14.3933 18.3183C14.4388 18.3284 14.4851 18.3334 14.5317 18.3333H17.9167C18.3587 18.3333 18.7826 18.1577 19.0952 17.8452C19.4077 17.5326 19.5833 17.1087 19.5833 16.6666V10.3125C19.5833 10.0537 19.5231 9.79855 19.4074 9.56712C19.2917 9.3357 19.1237 9.13439 18.9167 8.97915L18.0833 8.35415C18.0177 8.3049 17.943 8.26907 17.8634 8.2487C17.7839 8.22833 17.7012 8.22382 17.6199 8.23543C17.5387 8.24704 17.4605 8.27453 17.3899 8.31635C17.3193 8.35817 17.2576 8.41349 17.2083 8.47915C17.1591 8.54481 17.1233 8.61953 17.1029 8.69903C17.0825 8.77854 17.078 8.86128 17.0896 8.94253C17.1012 9.02379 17.1287 9.10196 17.1705 9.17258C17.2124 9.24321 17.2677 9.3049 17.3333 9.35415L18.1667 9.97915C18.2184 10.018 18.2604 10.0683 18.2893 10.1261C18.3183 10.184 18.3333 10.2478 18.3333 10.3125V16.6666C18.3333 16.7772 18.2894 16.8831 18.2113 16.9613C18.1332 17.0394 18.0272 17.0833 17.9167 17.0833H15.7808C15.815 16.95 15.8333 16.8108 15.8333 16.6666V2.49998C15.8333 2.05795 15.6577 1.63403 15.3452 1.32147C15.0326 1.00891 14.6087 0.833313 14.1667 0.833313H4.16667C3.72464 0.833313 3.30072 1.00891 2.98816 1.32147C2.67559 1.63403 2.5 2.05795 2.5 2.49998V16.6666ZM4.16667 17.0833C4.05616 17.0833 3.95018 17.0394 3.87204 16.9613C3.7939 16.8831 3.75 16.7772 3.75 16.6666V2.49998C3.75 2.38947 3.7939 2.28349 3.87204 2.20535C3.95018 2.12721 4.05616 2.08331 4.16667 2.08331H14.1667C14.2772 2.08331 14.3832 2.12721 14.4613 2.20535C14.5394 2.28349 14.5833 2.38947 14.5833 2.49998V16.6666C14.5833 16.7772 14.5394 16.8831 14.4613 16.9613C14.3832 17.0394 14.2772 17.0833 14.1667 17.0833H11.6667V15.2083C11.6667 15.0426 11.6008 14.8836 11.4836 14.7664C11.3664 14.6492 11.2074 14.5833 11.0417 14.5833H7.29167C7.12591 14.5833 6.96694 14.6492 6.84973 14.7664C6.73252 14.8836 6.66667 15.0426 6.66667 15.2083V17.0833H4.16667Z" fill="#172B4D" stroke="white" stroke-width="0.5"/>
</svg>
