<svg width="15" height="15" viewBox="0 0 15 15" fill="none" xmlns="http://www.w3.org/2000/svg">
<path d="M9.20931 4.01931C9.08076 4.15046 9.00876 4.32677 9.00876 4.51041C9.00876 4.69405 9.08076 4.87037 9.20931 5.00151L10.3318 6.12403C10.463 6.25257 10.6393 6.32457 10.8229 6.32457C11.0066 6.32457 11.1829 6.25257 11.314 6.12403L13.9589 3.4791C14.3117 4.25868 14.4185 5.12726 14.2652 5.96908C14.1118 6.8109 13.7055 7.58599 13.1004 8.19105C12.4954 8.79611 11.7203 9.2024 10.8784 9.35578C10.0366 9.50917 9.16805 9.40235 8.38847 9.04958L3.54061 13.8974C3.26151 14.1765 2.88297 14.3333 2.48826 14.3333C2.09355 14.3333 1.715 14.1765 1.4359 13.8974C1.1568 13.6183 1 13.2398 1 12.8451C1 12.4504 1.1568 12.0718 1.4359 11.7927L6.28376 6.94486C5.93098 6.16529 5.82417 5.29671 5.97755 4.45489C6.13093 3.61306 6.53723 2.83797 7.14228 2.23292C7.74734 1.62786 8.52243 1.22156 9.36425 1.06818C10.2061 0.914799 11.0747 1.02161 11.8542 1.37439L9.21633 4.0123L9.20931 4.01931Z" stroke="#172B4D" stroke-linecap="round" stroke-linejoin="round"/>
</svg>
