<svg width="20" height="20" viewBox="0 0 20 20" fill="none" xmlns="http://www.w3.org/2000/svg">
<g clip-path="url(#clip0_389_26563)">
<path d="M9.99984 12.5C11.3805 12.5 12.4998 11.3807 12.4998 9.99996C12.4998 8.61925 11.3805 7.49996 9.99984 7.49996C8.61913 7.49996 7.49984 8.61925 7.49984 9.99996C7.49984 11.3807 8.61913 12.5 9.99984 12.5Z" stroke="#667085" stroke-width="1.5" stroke-linecap="round" stroke-linejoin="round"/>
<path d="M15.6059 12.2727C15.5051 12.5012 15.475 12.7547 15.5195 13.0004C15.5641 13.2462 15.6812 13.4729 15.8559 13.6515L15.9014 13.6969C16.0422 13.8376 16.154 14.0048 16.2302 14.1887C16.3065 14.3726 16.3457 14.5698 16.3457 14.7689C16.3457 14.968 16.3065 15.1652 16.2302 15.3491C16.154 15.533 16.0422 15.7002 15.9014 15.8409C15.7606 15.9817 15.5935 16.0935 15.4096 16.1697C15.2257 16.246 15.0285 16.2852 14.8294 16.2852C14.6303 16.2852 14.4331 16.246 14.2492 16.1697C14.0652 16.0935 13.8981 15.9817 13.7574 15.8409L13.712 15.7954C13.5334 15.6208 13.3066 15.5036 13.0609 15.459C12.8151 15.4145 12.5617 15.4446 12.3332 15.5454C12.1091 15.6414 11.918 15.8009 11.7834 16.0042C11.6488 16.2074 11.5766 16.4456 11.5756 16.6894V16.8181C11.5756 17.22 11.416 17.6054 11.1318 17.8895C10.8477 18.1737 10.4623 18.3333 10.0604 18.3333C9.6586 18.3333 9.27322 18.1737 8.98907 17.8895C8.70492 17.6054 8.54529 17.22 8.54529 16.8181V16.75C8.53943 16.4992 8.45826 16.256 8.31235 16.052C8.16643 15.848 7.96252 15.6926 7.72711 15.606C7.49861 15.5052 7.24515 15.4751 6.99939 15.5197C6.75364 15.5642 6.52687 15.6814 6.34832 15.856L6.30287 15.9015C6.16215 16.0423 5.99505 16.1541 5.81111 16.2304C5.62717 16.3066 5.43001 16.3458 5.2309 16.3458C5.03178 16.3458 4.83462 16.3066 4.65069 16.2304C4.46675 16.1541 4.29965 16.0423 4.15893 15.9015C4.01805 15.7608 3.9063 15.5937 3.83005 15.4097C3.7538 15.2258 3.71455 15.0286 3.71455 14.8295C3.71455 14.6304 3.7538 14.4332 3.83005 14.2493C3.9063 14.0654 4.01805 13.8983 4.15893 13.7575L4.20438 13.7121C4.37903 13.5335 4.49619 13.3068 4.54075 13.061C4.58531 12.8153 4.55523 12.5618 4.45438 12.3333C4.35835 12.1092 4.19889 11.9181 3.99564 11.7835C3.79239 11.6489 3.55422 11.5767 3.31044 11.5757H3.18166C2.77981 11.5757 2.39443 11.4161 2.11028 11.1319C1.82614 10.8478 1.6665 10.4624 1.6665 10.0606C1.6665 9.65872 1.82614 9.27334 2.11028 8.98919C2.39443 8.70505 2.77981 8.54541 3.18166 8.54541H3.24984C3.50059 8.53955 3.74378 8.45838 3.94779 8.31247C4.1518 8.16655 4.3072 7.96264 4.39378 7.72723C4.49462 7.49874 4.5247 7.24527 4.48014 6.99951C4.43558 6.75376 4.31843 6.52699 4.14378 6.34844L4.09832 6.30299C3.95745 6.16227 3.84569 5.99517 3.76944 5.81123C3.69319 5.6273 3.65395 5.43013 3.65395 5.23102C3.65395 5.03191 3.69319 4.83474 3.76944 4.65081C3.84569 4.46687 3.95745 4.29977 4.09832 4.15905C4.23904 4.01818 4.40614 3.90642 4.59008 3.83017C4.77402 3.75392 4.97118 3.71468 5.17029 3.71468C5.36941 3.71468 5.56657 3.75392 5.7505 3.83017C5.93444 3.90642 6.10154 4.01818 6.24226 4.15905L6.28772 4.2045C6.46626 4.37915 6.69303 4.49631 6.93879 4.54087C7.18454 4.58543 7.43801 4.55535 7.6665 4.4545H7.72711C7.95118 4.35847 8.14228 4.19902 8.27688 3.99577C8.41148 3.79252 8.48371 3.55434 8.48469 3.31057V3.18178C8.48469 2.77993 8.64432 2.39455 8.92846 2.1104C9.21261 1.82626 9.59799 1.66663 9.99984 1.66663C10.4017 1.66663 10.7871 1.82626 11.0712 2.1104C11.3554 2.39455 11.515 2.77993 11.515 3.18178V3.24996C11.516 3.49374 11.5882 3.73191 11.7228 3.93516C11.8574 4.13841 12.0485 4.29787 12.2726 4.3939C12.5011 4.49474 12.7545 4.52483 13.0003 4.48027C13.246 4.43571 13.4728 4.31855 13.6514 4.1439L13.6968 4.09844C13.8375 3.95757 14.0046 3.84581 14.1886 3.76957C14.3725 3.69332 14.5697 3.65407 14.7688 3.65407C14.9679 3.65407 15.1651 3.69332 15.349 3.76957C15.5329 3.84581 15.7 3.95757 15.8407 4.09844C15.9816 4.23916 16.0934 4.40627 16.1696 4.5902C16.2459 4.77414 16.2851 4.9713 16.2851 5.17041C16.2851 5.36953 16.2459 5.56669 16.1696 5.75063C16.0934 5.93456 15.9816 6.10167 15.8407 6.24238L15.7953 6.28784C15.6206 6.46638 15.5035 6.69315 15.4589 6.93891C15.4144 7.18466 15.4444 7.43813 15.5453 7.66663V7.72723C15.6413 7.9513 15.8008 8.1424 16.004 8.277C16.2073 8.4116 16.4455 8.48384 16.6892 8.48481H16.818C17.2199 8.48481 17.6052 8.64444 17.8894 8.92859C18.1735 9.21273 18.3332 9.59812 18.3332 9.99996C18.3332 10.4018 18.1735 10.7872 17.8894 11.0713C17.6052 11.3555 17.2199 11.5151 16.818 11.5151H16.7498C16.5061 11.5161 16.2679 11.5883 16.0646 11.7229C15.8614 11.8575 15.7019 12.0486 15.6059 12.2727Z" stroke="#667085" stroke-width="1.5" stroke-linecap="round" stroke-linejoin="round"/>
</g>
<defs>
<clipPath id="clip0_389_26563">
<rect width="20" height="20" fill="white"/>
</clipPath>
</defs>
</svg>
