<svg width="20" height="20" viewBox="0 0 20 20" fill="none" xmlns="http://www.w3.org/2000/svg">
<path d="M16 15C16 15.93 16 16.395 15.8978 16.7765C15.6204 17.8117 14.8117 18.6204 13.7765 18.8978C13.395 19 12.93 19 12 19H5.8C4.11984 19 3.27976 19 2.63803 18.673C2.07354 18.3854 1.6146 17.9265 1.32698 17.362C1 16.7202 1 15.8802 1 14.2V5.8C1 4.11984 1 3.27976 1.32698 2.63803C1.6146 2.07354 2.07354 1.6146 2.63803 1.32698C3.27977 1 4.11984 1 5.8 1H12C12.93 1 13.395 1 13.7765 1.10222C14.8117 1.37962 15.6204 2.18827 15.8978 3.22354C16 3.60504 16 4.07003 16 5M10 6L6 10M6 10L10 14M6 10H19" stroke="#F2F4F7" stroke-width="1.5" stroke-linecap="round" stroke-linejoin="round"/>
</svg>
